<svg width="28" height="28" viewBox="0 0 28 28" fill="none" xmlns="http://www.w3.org/2000/svg">
  <path d="M 22.98375,1.6477249 C 20.78385,0.45720572 18.30475,-0.10661643 15.81195,0.01662324 13.31915,0.13986332 10.90642,0.94552541 8.83218,2.3473515 6.75793,3.7491748 5.10025,5.6943697 4.0366,7.9746636 2.972963,10.254957 2.54342,12.784473 2.7939666,15.292389 3.044513,17.800305 3.96571,20.192225 5.45894,22.211958 c 1.49322,2.019732 3.50224,3.59138 5.81194,4.546448 2.30967,0.955068 4.83307,1.257758 7.30007,0.87557 2.4669,-0.382187 4.7845,-1.434752 6.7046,-3.045098 0,0 -8.5828,0 -9.6509,-10.691542 -1.0681,-10.691543 7.3591,-12.2496111 7.3591,-12.2496111 z" fill="black" id="path862" style="stroke-width:0.999984" />
</svg>
